0
SECTION
2
ENTITIES
0
TEXT
8
TEXT
10
-520.000
20
60.000
30
0.0
40
25.0
1
SIDE VIEW
0
LINE
8
PAYLOAD
10
-190.000
20
-480.000
30
0.0
11
190.000
21
-480.000
31
0.0
0
LINE
8
PAYLOAD
10
190.000
20
-480.000
30
0.0
11
190.000
21
-40.000
31
0.0
0
LINE
8
PAYLOAD
10
190.000
20
-40.000
30
0.0
11
-190.000
21
-40.000
31
0.0
0
LINE
8
PAYLOAD
10
-190.000
20
-40.000
30
0.0
11
-190.000
21
-480.000
31
0.0
0
LINE
8
ZONE
10
-260.000
20
-980.000
30
0.0
11
260.000
21
-980.000
31
0.0
0
LINE
8
ZONE
10
260.000
20
-980.000
30
0.0
11
260.000
21
-500.000
31
0.0
0
LINE
8
ZONE
10
260.000
20
-500.000
30
0.0
11
-260.000
21
-500.000
31
0.0
0
LINE
8
ZONE
10
-260.000
20
-500.000
30
0.0
11
-260.000
21
-980.000
31
0.0
0
LINE
8
FRAME
10
-520.000
20
-260.000
30
0.0
11
-380.000
21
-260.000
31
0.0
0
LINE
8
FRAME
10
-380.000
20
-260.000
30
0.0
11
-380.000
21
-40.000
31
0.0
0
LINE
8
FRAME
10
-380.000
20
-40.000
30
0.0
11
-520.000
21
-40.000
31
0.0
0
LINE
8
FRAME
10
-520.000
20
-40.000
30
0.0
11
-520.000
21
-260.000
31
0.0
0
LINE
8
FRAME
10
380.000
20
-260.000
30
0.0
11
520.000
21
-260.000
31
0.0
0
LINE
8
FRAME
10
520.000
20
-260.000
30
0.0
11
520.000
21
-40.000
31
0.0
0
LINE
8
FRAME
10
520.000
20
-40.000
30
0.0
11
380.000
21
-40.000
31
0.0
0
LINE
8
FRAME
10
380.000
20
-40.000
30
0.0
11
380.000
21
-260.000
31
0.0
0
LINE
8
FRAME
10
-60.000
20
-120.000
30
0.0
11
60.000
21
-120.000
31
0.0
0
LINE
8
FRAME
10
60.000
20
-120.000
30
0.0
11
60.000
21
-40.000
31
0.0
0
LINE
8
FRAME
10
60.000
20
-40.000
30
0.0
11
-60.000
21
-40.000
31
0.0
0
LINE
8
FRAME
10
-60.000
20
-40.000
30
0.0
11
-60.000
21
-120.000
31
0.0
0
LINE
8
FRAME
10
-100.000
20
-490.000
30
0.0
11
100.000
21
-490.000
31
0.0
0
LINE
8
FRAME
10
100.000
20
-490.000
30
0.0
11
100.000
21
-430.000
31
0.0
0
LINE
8
FRAME
10
100.000
20
-430.000
30
0.0
11
-100.000
21
-430.000
31
0.0
0
LINE
8
FRAME
10
-100.000
20
-430.000
30
0.0
11
-100.000
21
-490.000
31
0.0
0
TEXT
8
TEXT
10
680.000
20
320.000
30
0.0
40
25.0
1
BOTTOM VIEW
0
LINE
8
PAYLOAD
10
1010.000
20
-230.000
30
0.0
11
1390.000
21
-230.000
31
0.0
0
LINE
8
PAYLOAD
10
1390.000
20
-230.000
30
0.0
11
1390.000
21
230.000
31
0.0
0
LINE
8
PAYLOAD
10
1390.000
20
230.000
30
0.0
11
1010.000
21
230.000
31
0.0
0
LINE
8
PAYLOAD
10
1010.000
20
230.000
30
0.0
11
1010.000
21
-230.000
31
0.0
0
LINE
8
FRAME
10
690.000
20
130.000
30
0.0
11
1710.000
21
130.000
31
0.0
0
LINE
8
FRAME
10
1710.000
20
130.000
30
0.0
11
1710.000
21
170.000
31
0.0
0
LINE
8
FRAME
10
1710.000
20
170.000
30
0.0
11
690.000
21
170.000
31
0.0
0
LINE
8
FRAME
10
690.000
20
170.000
30
0.0
11
690.000
21
130.000
31
0.0
0
LINE
8
FRAME
10
690.000
20
-170.000
30
0.0
11
1710.000
21
-170.000
31
0.0
0
LINE
8
FRAME
10
1710.000
20
-170.000
30
0.0
11
1710.000
21
-130.000
31
0.0
0
LINE
8
FRAME
10
1710.000
20
-130.000
30
0.0
11
690.000
21
-130.000
31
0.0
0
LINE
8
FRAME
10
690.000
20
-130.000
30
0.0
11
690.000
21
-170.000
31
0.0
0
LINE
8
FRAME
10
1170.000
20
-170.000
30
0.0
11
1230.000
21
-170.000
31
0.0
0
LINE
8
FRAME
10
1230.000
20
-170.000
30
0.0
11
1230.000
21
170.000
31
0.0
0
LINE
8
FRAME
10
1230.000
20
170.000
30
0.0
11
1170.000
21
170.000
31
0.0
0
LINE
8
FRAME
10
1170.000
20
170.000
30
0.0
11
1170.000
21
-170.000
31
0.0
0
LINE
8
FITTING
10
690.000
20
-210.000
30
0.0
11
810.000
21
-210.000
31
0.0
0
LINE
8
FITTING
10
810.000
20
-210.000
30
0.0
11
810.000
21
-90.000
31
0.0
0
LINE
8
FITTING
10
810.000
20
-90.000
30
0.0
11
690.000
21
-90.000
31
0.0
0
LINE
8
FITTING
10
690.000
20
-90.000
30
0.0
11
690.000
21
-210.000
31
0.0
0
LINE
8
FITTING
10
1590.000
20
-210.000
30
0.0
11
1710.000
21
-210.000
31
0.0
0
LINE
8
FITTING
10
1710.000
20
-210.000
30
0.0
11
1710.000
21
-90.000
31
0.0
0
LINE
8
FITTING
10
1710.000
20
-90.000
30
0.0
11
1590.000
21
-90.000
31
0.0
0
LINE
8
FITTING
10
1590.000
20
-90.000
30
0.0
11
1590.000
21
-210.000
31
0.0
0
LINE
8
FITTING
10
690.000
20
110.000
30
0.0
11
810.000
21
110.000
31
0.0
0
LINE
8
FITTING
10
810.000
20
110.000
30
0.0
11
810.000
21
230.000
31
0.0
0
LINE
8
FITTING
10
810.000
20
230.000
30
0.0
11
690.000
21
230.000
31
0.0
0
LINE
8
FITTING
10
690.000
20
230.000
30
0.0
11
690.000
21
110.000
31
0.0
0
LINE
8
FITTING
10
1590.000
20
110.000
30
0.0
11
1710.000
21
110.000
31
0.0
0
LINE
8
FITTING
10
1710.000
20
110.000
30
0.0
11
1710.000
21
230.000
31
0.0
0
LINE
8
FITTING
10
1710.000
20
230.000
30
0.0
11
1590.000
21
230.000
31
0.0
0
LINE
8
FITTING
10
1590.000
20
230.000
30
0.0
11
1590.000
21
110.000
31
0.0
0
LINE
8
ZONE
10
660.000
20
-240.000
30
0.0
11
840.000
21
-240.000
31
0.0
0
LINE
8
ZONE
10
840.000
20
-240.000
30
0.0
11
840.000
21
-60.000
31
0.0
0
LINE
8
ZONE
10
840.000
20
-60.000
30
0.0
11
660.000
21
-60.000
31
0.0
0
LINE
8
ZONE
10
660.000
20
-60.000
30
0.0
11
660.000
21
-240.000
31
0.0
0
LINE
8
ZONE
10
1560.000
20
-240.000
30
0.0
11
1740.000
21
-240.000
31
0.0
0
LINE
8
ZONE
10
1740.000
20
-240.000
30
0.0
11
1740.000
21
-60.000
31
0.0
0
LINE
8
ZONE
10
1740.000
20
-60.000
30
0.0
11
1560.000
21
-60.000
31
0.0
0
LINE
8
ZONE
10
1560.000
20
-60.000
30
0.0
11
1560.000
21
-240.000
31
0.0
0
LINE
8
ZONE
10
660.000
20
80.000
30
0.0
11
840.000
21
80.000
31
0.0
0
LINE
8
ZONE
10
840.000
20
80.000
30
0.0
11
840.000
21
260.000
31
0.0
0
LINE
8
ZONE
10
840.000
20
260.000
30
0.0
11
660.000
21
260.000
31
0.0
0
LINE
8
ZONE
10
660.000
20
260.000
30
0.0
11
660.000
21
80.000
31
0.0
0
LINE
8
ZONE
10
1560.000
20
80.000
30
0.0
11
1740.000
21
80.000
31
0.0
0
LINE
8
ZONE
10
1740.000
20
80.000
30
0.0
11
1740.000
21
260.000
31
0.0
0
LINE
8
ZONE
10
1740.000
20
260.000
30
0.0
11
1560.000
21
260.000
31
0.0
0
LINE
8
ZONE
10
1560.000
20
260.000
30
0.0
11
1560.000
21
80.000
31
0.0
0
LINE
8
ZONE
10
1430.000
20
-60.000
30
0.0
11
1500.000
21
-60.000
31
0.0
0
LINE
8
ZONE
10
1500.000
20
-60.000
30
0.0
11
1500.000
21
90.000
31
0.0
0
LINE
8
ZONE
10
1500.000
20
90.000
30
0.0
11
1430.000
21
90.000
31
0.0
0
LINE
8
ZONE
10
1430.000
20
90.000
30
0.0
11
1430.000
21
-60.000
31
0.0
0
LINE
8
ZONE
10
900.000
20
-80.000
30
0.0
11
970.000
21
-80.000
31
0.0
0
LINE
8
ZONE
10
970.000
20
-80.000
30
0.0
11
970.000
21
90.000
31
0.0
0
LINE
8
ZONE
10
970.000
20
90.000
30
0.0
11
900.000
21
90.000
31
0.0
0
LINE
8
ZONE
10
900.000
20
90.000
30
0.0
11
900.000
21
-80.000
31
0.0
0
CIRCLE
8
FASTENER
10
720.000
20
-180.000
30
0.0
40
4.000
0
CIRCLE
8
FASTENER
10
780.000
20
-120.000
30
0.0
40
4.000
0
CIRCLE
8
FASTENER
10
1680.000
20
-180.000
30
0.0
40
4.000
0
CIRCLE
8
FASTENER
10
1620.000
20
-120.000
30
0.0
40
4.000
0
CIRCLE
8
FASTENER
10
720.000
20
140.000
30
0.0
40
4.000
0
CIRCLE
8
FASTENER
10
792.000
20
140.000
30
0.0
40
4.000
0
CIRCLE
8
FASTENER
10
1680.000
20
140.000
30
0.0
40
4.000
0
CIRCLE
8
FASTENER
10
1620.000
20
200.000
30
0.0
40
4.000
0
CIRCLE
8
ZONE
10
1200.000
20
250.000
30
0.0
40
60.000
0
CIRCLE
8
ZONE
10
1320.000
20
250.000
30
0.0
40
60.000
0
LINE
8
HARNESS
10
750.000
20
-150.000
30
0.0
11
750.000
21
150.000
31
0.0
0
LINE
8
HARNESS
10
750.000
20
150.000
30
0.0
11
1170.000
21
150.000
31
0.0
0
LINE
8
HARNESS
10
1170.000
20
150.000
30
0.0
11
1170.000
21
250.000
31
0.0
0
LINE
8
HARNESS
10
1170.000
20
250.000
30
0.0
11
1200.000
21
250.000
31
0.0
0
LINE
8
HARNESS
10
1650.000
20
-150.000
30
0.0
11
1650.000
21
150.000
31
0.0
0
LINE
8
HARNESS
10
1650.000
20
150.000
30
0.0
11
1260.000
21
150.000
31
0.0
0
LINE
8
HARNESS
10
1260.000
20
150.000
30
0.0
11
1260.000
21
250.000
31
0.0
0
LINE
8
HARNESS
10
1260.000
20
250.000
30
0.0
11
1320.000
21
250.000
31
0.0
0
ENDSEC
0
EOF
